<?xml version="1.0" standalone="no"?>
<!DOCTYPE svg PUBLIC "-//W3C//DTD SVG 20010904//EN"
 "http://www.w3.org/TR/2001/REC-SVG-20010904/DTD/svg10.dtd">
<svg version="1.0" xmlns="http://www.w3.org/2000/svg"
 width="104.000000pt" height="128.000000pt" viewBox="0 0 104.000000 128.000000"
 preserveAspectRatio="xMidYMid meet">
<g transform="translate(0.000000,128.000000) scale(0.100000,-0.100000)"
fill="#000000" stroke="none">
<path d="M289 1045 c-103 -54 -151 -142 -157 -291 -9 -210 78 -368 244 -446
35 -16 64 -31 64 -33 0 -7 -105 27 -118 37 -7 6 -16 8 -19 4 -10 -10 11 -21
74 -41 41 -13 79 -16 152 -13 85 3 106 8 164 36 235 116 297 414 130 620 -85
105 -203 152 -377 152 -97 -1 -117 -4 -157 -25z m86 2 c-82 -32 -136 -81 -174
-155 -65 -130 -32 -346 76 -490 39 -51 38 -31 -1 26 -66 98 -102 227 -93 332
13 157 108 262 263 291 49 9 60 8 110 -15 108 -50 204 -167 249 -305 26 -81
18 -203 -19 -266 -64 -109 -136 -162 -231 -172 -81 -8 -139 4 -194 42 -27 19
-51 32 -53 29 -10 -9 -91 90 -113 139 -85 185 -67 392 42 488 44 38 108 69
143 68 24 -1 24 -1 -5 -12z m304 -35 c74 -36 151 -114 186 -187 27 -54 29 -70
30 -165 0 -93 -3 -111 -27 -162 -45 -97 -148 -188 -238 -212 -14 -4 1 8 34 26
38 21 72 50 96 83 48 65 93 145 82 145 -5 0 -7 24 -4 53 12 147 -91 340 -228
430 -41 26 -42 29 -15 23 17 -4 55 -19 84 -34z"/>
<path d="M340 855 c-15 -18 -4 -52 20 -60 25 -8 60 11 60 33 0 39 -55 57 -80
27z"/>
<path d="M570 855 c-15 -18 -4 -52 20 -60 25 -8 60 11 60 33 0 39 -55 57 -80
27z m50 -21 c0 -8 -19 -13 -24 -6 -3 5 1 9 9 9 8 0 15 -2 15 -3z"/>
<path d="M388 689 c-21 -10 -42 -28 -48 -38 -16 -30 -12 -107 6 -125 14 -15
14 -16 0 -16 -11 0 -16 -9 -16 -30 l0 -30 215 0 215 0 0 30 0 30 -75 0 -76 0
22 29 c24 32 22 88 -3 118 -42 51 -172 68 -240 32z m147 -27 c-3 -3 -11 0 -18
7 -9 10 -8 11 6 5 10 -3 15 -9 12 -12z m66 -25 c11 -10 17 -23 13 -28 -4 -8
-9 -7 -15 2 -4 7 -5 17 -2 23 4 5 1 6 -6 2 -12 -8 -40 19 -41 37 0 8 14 -2 51
-36z m-211 19 c0 -2 -8 -10 -17 -17 -16 -13 -17 -12 -4 4 13 16 21 21 21 13z
m171 -45 c34 -35 36 -51 8 -77 -17 -15 -36 -19 -91 -19 -61 0 -72 3 -89 24
-25 31 -24 37 10 72 25 25 37 29 81 29 44 0 56 -4 81 -29z m35 -100 c-4 -5 0
-11 6 -14 24 -8 0 -18 -36 -15 -35 3 -36 4 -15 16 17 11 20 11 14 0 -4 -7 1
-5 11 5 20 19 28 22 20 8z m-166 -23 c8 -3 -4 -7 -27 -9 -37 -4 -40 -3 -32 13
7 13 15 16 27 9 9 -4 24 -10 32 -13z"/>
</g>
</svg>
